<svg xmlns="http://www.w3.org/2000/svg" viewBox="0 0 512 512">
  <path fill="#306fc5" d="M512 402.28a30.27 30.27 0 0 1-30.27 30.27H30.26A30.27 30.27 0 0 1 0 402.28V109.72a30.27 30.27 0 0 1 30.27-30.27h451.47A30.27 30.27 0 0 1 512 109.72v292.56z"></path>
  <path fill="#202121" d="M21.52 402.28V109.72a30.27 30.27 0 0 1 30.26-30.27H30.26A30.26 30.26 0 0 0 0 109.72v292.56a30.27 30.27 0 0 0 30.27 30.27h21.52a30.27 30.27 0 0 1-30.27-30.27z" opacity=".15"></path>
  <g fill="#fff">
    <path d="M74.59 220.75h15.3l-7.65-19.47zM155.95 286.1v9.05h25.73v9.74h-25.73v10.43h28.5l13.22-14.6-12.52-14.61zM356.9 201.28l-8.35 19.47h16zM230.35 320.88v-39.64l-18.08 19.47zM264.42 292.37c-.7-4.17-3.48-6.26-7.65-6.26h-14.6v12.51h15.3c4.17 0 6.95-2.08 6.95-6.25zM313.09 297.24c1.4-.7 2.09-2.79 2.09-4.87.7-2.78-.7-4.17-2.09-4.87-1.39-.7-3.48-.7-5.56-.7h-13.9v11.13h13.9c2.08 0 4.17 0 5.56-.7z"></path>
    <path d="M413.22 183.2v8.34l-4.17-8.34h-32.68v8.34l-4.17-8.34h-44.5c-7.65 0-13.91 1.39-19.47 4.17v-4.17h-31.3v4.17c-3.47-2.78-7.64-4.17-13.2-4.17H151.78l-7.66 17.38-7.64-17.38H101v8.34l-3.47-8.34H66.94l-13.9 32.68-16 35.46-.3.7H72.96l.25-.7 4.17-10.43h9.04l4.18 11.13h40.32v-8.35l3.48 8.35h20.16l3.48-8.35v8.35h96.66v-18.08h1.39c1.39 0 1.39 0 1.39 2.08v15.3h50.06v-4.17c4.17 2.09 10.43 4.17 18.77 4.17h20.87l4.17-11.12h9.73l4.17 11.12h40.33v-10.43l6.26 10.43h32.68V183.2h-31.3zM177.5 241.6H166.37V203.37l-.7 1.6v-.02l-16.17 36.67h-10.24l-16.7-38.25v38.25H98.94l-4.87-10.43H70.42l-4.87 10.43H53.33l20.57-48.68h17.38l19.47 46.6v-46.6h18.42l.33.7h.02l8.77 19.1 6.3 14.3.23-.72 13.9-33.38h18.78v48.68zm47.98-38.24h-27.12v9.04h26.42v9.74h-26.42v9.74h27.12v10.42h-38.94v-49.37h38.94v10.43zm49.6 17.93l.06.05c.26.27.49.55.68.82 1.33 1.75 2.4 4.34 2.46 8.15l.01.2.01.1v.07l.02 1.2v9.73H267.9v-5.56c0-2.79 0-6.96-2.1-9.74a6.33 6.33 0 0 0-2.04-1.4c-1.04-.67-3.02-.68-6.3-.68h-12.51v17.38h-11.82v-48.67h26.42c6.26 0 10.43 0 13.9 2.08 3.42 2.05 5.47 5.44 5.55 10.81-.16 7.4-4.9 11.46-8.32 12.83 0 0 2.32.47 4.4 2.63zm23.41 20.32h-11.82v-48.68h11.82v48.68zm135.6 0h-15.3l-22.26-36.86v30.6l-.07-.07v6.36h-11.75v-.03H372.9l-4.17-10.43h-24.34l-4.17 11.12H327c-5.56 0-12.52-1.39-16.69-5.56-4.17-4.17-6.26-9.73-6.26-18.77 0-6.95 1.4-13.91 6.26-19.47 3.47-4.18 9.73-5.57 17.38-5.57h11.13v10.43h-11.13c-4.17 0-6.25.7-9.04 2.79-2.08 2.08-3.47 6.25-3.47 11.12 0 5.56.7 9.04 3.47 11.82 2.1 2.09 4.87 2.79 8.35 2.79h4.86l16-38.25h17.38l19.47 46.59v-46.59h17.38l20.16 34.07v-34.07h11.83v47.98z"></path>
    <path d="M265.16 213.2a7.51 7.51 0 0 0 1.5-5.99 3.88 3.88 0 0 0-.1-.63c-.01-.05 0-.1-.02-.16h-.01a3.9 3.9 0 0 0-2.11-2.36c-1.4-.7-3.48-.7-5.57-.7h-13.9v11.13h13.9c2.09 0 4.18 0 5.57-.7.2-.1.4-.25.57-.4 0 0 .08-.07.17-.18zM475.1 311.14c0-4.86-1.38-9.73-3.47-13.2v-31.3h-.03v-2.09h-33.48c-4.34 0-9.6 4.18-9.6 4.18v-4.18h-31.99c-4.87 0-11.12 1.4-13.9 4.18v-4.18H325.6v4.17c-4.17-3.47-11.82-4.17-15.3-4.17h-37.55v4.17c-3.47-3.47-11.82-4.17-16-4.17h-41.71l-9.74 10.43-9.04-10.43H133.7v70.24h61.19l10.05-10.06 8.71 10.06h38.95v-16h3.48c4.86 0 11.12 0 15.99-2.09v18.78h31.29V317.4h1.38c2.1 0 2.1 0 2.1 2.09v15.99h94.56c6.26 0 12.51-1.4 15.99-4.17v4.17h29.9c6.25 0 12.52-.7 16.69-3.48 6.4-3.84 10.44-10.64 11.04-18.75l.08-.72-.04-.04c.03-.45.05-.9.05-1.35zm-219.02-4.17h-13.91v18.08H219.3l-13.3-15.3-.05.05-.65-.75-15.3 16h-44.5v-48.67h45.2l12.35 13.52 2.6 2.83.35-.36 14.6-16h36.85c7.16 0 15.17 1.77 18.2 9.05.37 1.44.58 3.04.58 4.86 0 13.9-9.74 16.7-20.16 16.7zm69.53-.7c1.39 2.09 2.08 4.87 2.08 9.05v9.73h-11.82v-6.26c0-2.78 0-7.65-2.08-9.74-1.4-2.08-4.18-2.08-8.35-2.08h-12.51v18.08h-11.82v-49.37h26.42c5.56 0 10.43 0 13.91 2.09a12.3 12.3 0 0 1 6.25 11.12c0 7.65-4.86 11.82-8.34 13.22 3.48 1.38 5.56 2.77 6.26 4.17zm47.98-20.16h-27.12v9.04h26.42v9.73h-26.42v9.74h27.12v10.43h-38.94v-49.37h38.94v10.43zm29.2 38.94h-22.25v-10.43h22.25c2.08 0 3.48 0 4.87-1.4a5.3 5.3 0 0 0 1.39-3.47c0-1.4-.7-2.78-1.39-3.47-.7-.7-2.09-1.4-4.18-1.4-11.12-.69-24.33 0-24.33-15.29 0-6.95 4.17-14.6 16.69-14.6h22.94v11.82h-21.55c-2.09 0-3.48 0-4.87.7-1.39.69-1.39 2.08-1.39 3.47 0 2.09 1.39 2.78 2.78 3.47 1.4.7 2.78.7 4.17.7h6.26c6.26 0 10.43 1.39 13.21 4.17 2.09 2.09 3.48 5.57 3.48 10.43 0 10.43-6.26 15.3-18.08 15.3zm59.8-4.87c-2.78 2.78-7.65 4.87-14.6 4.87h-22.25v-10.43h22.25c2.08 0 3.48 0 4.87-1.4.69-.69 1.39-2.08 1.39-3.47 0-1.4-.7-2.78-1.4-3.47-.7-.7-2.08-1.4-4.17-1.4-11.12-.69-24.33 0-24.33-15.29 0-6.6 3.78-12.58 13.1-14.35 1.12-.16 2.3-.25 3.59-.25h22.94v11.81h-21.56c-2.08 0-3.47 0-4.86.7a5.3 5.3 0 0 0-1.4 3.48c0 2.09.7 2.78 2.79 3.47 1.39.7 2.78.7 4.17.7h6.26c3.04 0 5.33.37 7.44 1.11 1.92.7 8.3 3.55 9.73 11 .12.78.21 1.6.21 2.5 0 4.17-1.39 7.64-4.17 10.42z"></path>
  </g>
</svg>