<svg xmlns="http://www.w3.org/2000/svg" viewBox="0 0 512 512">
  <path fill="#0099df" d="M512 402.3a30.3 30.3 0 0 1-30.3 30.2H30.3A30.3 30.3 0 0 1 0 402.3V109.7a30.3 30.3 0 0 1 30.3-30.2h451.4a30.3 30.3 0 0 1 30.3 30.2v292.6z"></path>
  <path fill="#202121" d="M21.5 402.3V109.7a30.3 30.3 0 0 1 30.3-30.2H30.3A30.3 30.3 0 0 0 0 109.7v292.6a30.3 30.3 0 0 0 30.3 30.2h21.5a30.3 30.3 0 0 1-30.3-30.2z" opacity=".1"></path>
  <path fill="#ea001b" d="M334.7 234.6c0-18 8.3-34.1 21.3-44.7a57.4 57.4 0 1 0 0 89.3 57.3 57.3 0 0 1-21.3-44.6z"></path>
  <path fill="#f79f1a" d="M392.1 177.1A57.2 57.2 0 0 0 356 190a57.3 57.3 0 0 1 0 89.3 57.4 57.4 0 1 0 36.2-102.1z"></path>
  <path fill="#ff5f01" d="M377.3 234.6c0-18-8.3-34.1-21.3-44.7a57.3 57.3 0 0 0 0 89.3 57.3 57.3 0 0 0 21.3-44.6z"></path>
  <path fill="#ffc715" d="M165.8 261.2c0 4-3.2 7.3-7.3 7.3H68c-4 0-7.4-3.3-7.4-7.3v-70.7c0-4 3.3-7.3 7.4-7.3h90.6c4 0 7.3 3.3 7.3 7.3v70.7z"></path>
  <g fill="#34495e">
    <path d="M166.8 331.1H60.5a8.3 8.3 0 1 1 0-16.7h106.3a8.3 8.3 0 1 1 0 16.7zM166.8 366H60.5a8.3 8.3 0 1 1 0-16.8h106.3a8.3 8.3 0 1 1 0 16.7z"></path>
  </g>
  <g fill="#ffa617">
    <path d="M88.9 268.5h16.7v-85.3H88.9v20.1H60.5V220H89v11.7H60.5v16.7H89v11.8zM157.5 220h8.3v-16.7h-24.3v-20.1H125v56.9c0 4.6 3.7 8.3 8.3 8.3h32.6v-16.7h-24.3V220h16z"></path>
  </g>
  <path fill="#202121" d="M76 261.2v-70.7c0-4 3.2-7.3 7.2-7.3H68c-4 0-7.4 3.3-7.4 7.3v70.7c0 4 3.3 7.3 7.4 7.3h15.3c-4 0-7.3-3.3-7.3-7.3z" opacity=".1"></path>
</svg>