<svg xmlns="http://www.w3.org/2000/svg" viewBox="0 0 512 512">
  <path fill="#fff" d="M512 402.3a30.3 30.3 0 0 1-30.3 30.2H30.3A30.3 30.3 0 0 1 0 402.3V109.7a30.3 30.3 0 0 1 30.3-30.2h451.4a30.3 30.3 0 0 1 30.3 30.2v292.6z"></path>
  <path fill="#f79f1a" d="M113.6 258l-12-57.6c-2-8-8-10.4-15.5-10.7H31l-.5 2.7c43 10.4 71.3 35.5 83.1 65.6z"></path>
  <g fill="#059bbf">
    <path d="M241.4 190.9h-35.7l-22.2 130.5h35.6zM135.3 321.3l56-130.3h-37.6l-34.9 89-3.7-13.4c-6.8-16.2-26.3-39.5-49.3-54.1l31.9 108.8h37.6zM343 278.8c0-14.9-9.5-26.2-30-35.5-12.4-6-20-10-20-16.2 0-5.4 6.5-11.2 20.4-11.2 11.7-.2 20.1 2.4 26.7 5l3.2 1.5L348 194c-7-2.6-18-5.4-31.9-5.4-35.1 0-59.9 17.7-60.1 43-.2 18.8 17.7 29.2 31.2 35.5 13.8 6.4 18.5 10.4 18.4 16.2-.1 8.7-11 12.7-21.3 12.7-14.2 0-21.8-2-33.5-6.9l-4.5-2-5 29.2c8.3 3.6 23.6 6.8 39.6 7 37.4 0 61.7-17.5 62-44.6zM385.2 301.9h45.6l4.3 19.6h33L439.3 191H412c-8.6 0-15 2.4-18.7 10.8l-52.8 119.7h37.4l7.4-19.6zm24.4-63.3l4.8-12.4 2.4 11.2 8.2 37.7h-29.5l14.1-36.5zM481.7 79.5H30.3A30.3 30.3 0 0 0 0 109.7v31.4h512v-31.4a30.3 30.3 0 0 0-30.3-30.2z"></path>
  </g>
  <path fill="#f79f1a" d="M481.7 432.5H30.3A30.3 30.3 0 0 1 0 402.3v-31.4h512v31.4a30.3 30.3 0 0 1-30.3 30.2z"></path>
  <path fill="#202121" d="M21.5 402.3V109.7a30.3 30.3 0 0 1 30.3-30.2H30.3A30.3 30.3 0 0 0 0 109.7v292.6a30.3 30.3 0 0 0 30.3 30.2h21.5a30.3 30.3 0 0 1-30.3-30.2z" opacity=".1"></path>
</svg>