<svg xmlns="http://www.w3.org/2000/svg" viewBox="0 0 512 512">
  <path fill="#34495e" d="M512 402.28a30.27 30.27 0 0 1-30.27 30.27H30.26A30.27 30.27 0 0 1 0 402.28V109.72a30.27 30.27 0 0 1 30.27-30.27h451.46A30.27 30.27 0 0 1 512 109.72v292.56z"></path>
  <path fill="#202121" d="M21.52 402.28V109.72a30.27 30.27 0 0 1 30.26-30.27H30.26A30.27 30.27 0 0 0 0 109.72v292.56a30.27 30.27 0 0 0 30.27 30.27h21.52a30.27 30.27 0 0 1-30.27-30.27z" opacity=".15"></path>
  <path fill="#f26e21" d="M309.39 255.8a37.22 37.22 0 0 0-10.84-26.56 37.2 37.2 0 0 0-26.62-10.84h-.14a37.34 37.34 0 0 0-37.6 37.6 37.6 37.6 0 0 0 37.6 37.6 37.34 37.34 0 0 0 37.6-37.6v-.2z"></path>
  <g fill="#e7e8e3">
    <path d="M227.2 271.9c-5.62 5.64-10.8 7.83-16.4 7.95-13.6-.12-23.61-10.2-23.61-24.57 0-7.24 2.74-13.16 7.07-18.23 4.07-3.86 9.32-6.36 15.34-6.36 6.51 0 11.57 2.17 17.36 7.96V222c-5.78-2.89-10.85-4.33-17.36-4.33a41.89 41.89 0 0 0-24.5 10.2 36.21 36.21 0 0 0-5.31 5.8c-4.86 6.3-7.8 14-7.8 22.32 0 20.97 16.64 36.88 37.61 36.88l.3-.01.42.01c5.79 0 10.85-1.44 17.36-4.34l-.48-16.63c-.25.24.24.47 0 .7v-.7zM356.86 228.03L340.5 268.3l-18.8-47.73H306.5l29.65 73.03h7.95l31.1-73.03H360zM380.98 252.38v39.06H420.75v-11.58H395.45V260.35h24.58v-12.3h-24.58v-15.19h25.3v-12.3h-39.77zM54.13 220.57H33.88v70.87h20.25c10.85 0 18.8-2.9 25.31-7.96A35.76 35.76 0 0 0 92.46 256c0-20.97-15.19-35.43-38.32-35.43zm16.63 53.51c-4.33 3.61-10.12 5.78-18.8 5.78h-4.34v-47h3.62c8.68 0 14.46 1.45 18.8 5.78A23.1 23.1 0 0 1 78 256c.72 6.5-2.17 13.74-7.23 18.08zM98.97 220.56h13.74v70.87H98.97zM147.41 248.04c-8.67-2.89-10.84-5.06-10.84-8.67 0-4.34 4.34-7.96 10.12-7.96 4.34 0 7.95 1.45 11.57 5.79l7.23-9.4a31.5 31.5 0 0 0-20.97-7.95c-12.3 0-22.42 8.67-22.42 20.24 0 10.13 4.35 14.46 17.36 19.53 5.79 2.16 7.96 2.89 9.4 4.33a7.96 7.96 0 0 1 4.34 7.23c0 5.79-4.34 10.13-10.85 10.13s-12.3-3.62-15.18-9.4l-8.68 8.68c6.5 9.4 14.46 13.73 24.59 13.73 14.46 0 24.58-9.4 24.58-23.14 0-12.29-4.34-17.35-20.25-23.14zM459.8 261.78c10.85-2.16 16.63-9.4 16.63-20.24 0-13.01-9.4-20.97-25.3-20.97h-20.98v70.87h13.74v-28.21h2.17l19.52 28.2h16.64l-22.42-29.65zm-11.57-8.67h-4.34v-21.7h4.34c8.68 0 13.74 3.62 13.74 10.85 0 7.23-5.06 10.84-13.74 10.84z"></path>
  </g>
</svg>